# xmcd
#
# Track frame offsets:
#	150
#	17887
#	35549
#	56427
#	72711
#	89005
#	105392
#	122192
#	136701
#	149788
#	165706
#	181549
#	196212
#	207949
#
# Disc length: 2957 seconds
#
# Revision: 1
# Processed by: cddbd v1.5.2PL0 Copyright (c) Steve Scherf et al.
# Submitted via: audiograbber 1.83.01
#
DISCID=cc0b8b0e
DTITLE=Various  - Hitz Country Vol. #6
DYEAR=2008
DGENRE=Country
TTITLE0=Taylor Swift - Love Story
TTITLE1=Montgomery Gentry - Roll With Me
TTITLE2=Sugarland - Already Gone
TTITLE3=Blake Shelton - She Wouldn't Be Gone
TTITLE4=Josh Turner - Everything Is Fine
TTITLE5=Whitney Duncan - When I Said I Would
TTITLE6=Eli Young Band - Always The Love Songs
TTITLE7=Gretchen Wilson - Don't Do Me No Good
TTITLE8=Jessica Simpson - Come On Over
TTITLE9=Julianne Hough - My Hallelujah Song
TTITLE10=Miranda Lambert - More Like Her
TTITLE11=Randy Owen - Like I Never Broke Her Heart
TTITLE12=Justin Moore - Back That Thing Up
TTITLE13=Jake Owen - Don't Think I Can't Love You
EXTD=
EXTT0=
EXTT1=
EXTT2=
EXTT3=
EXTT4=
EXTT5=
EXTT6=
EXTT7=
EXTT8=
EXTT9=
EXTT10=
EXTT11=
EXTT12=
EXTT13=
PLAYORDER=
